<svg width="36" height="35" viewBox="0 0 36 35" fill="none" xmlns="http://www.w3.org/2000/svg">
  <g opacity="0.7">
    <path d="M28.5477 20.3343C28.8109 20.3684 29.0925 20.3362 29.3585 20.3353L31.0859 20.3343L31.0869 22.8565C31.0871 23.0876 31.1253 23.551 31.0859 23.7547C31.0397 23.9021 31.0586 24.0217 31.0859 24.1703C30.6391 24.1406 28.6551 24.2162 28.5477 24.1703V20.3343Z"/>
    <path d="M8.68144 10.872H11.2074C11.2024 11.1588 11.2152 11.4446 11.2142 11.7313L11.2064 14.1768C11.2068 14.5705 11.2454 15.1733 11.2074 15.5436C11.1226 15.4957 11.0527 15.4105 10.9858 15.3407C10.2608 14.5852 9.71914 14.4234 8.93808 15.2636C8.85077 15.3574 8.78113 15.4611 8.68144 15.5436L8.68127 12.3345C8.68177 11.8542 8.72676 11.3479 8.68144 10.872Z"/>
    <path d="M8.68147 15.5437C8.78116 15.4612 8.8508 15.3575 8.93811 15.2636C9.71917 14.4235 10.2608 14.5852 10.9858 15.3407C11.0528 15.4105 11.1226 15.4958 11.2074 15.5437C11.5588 16.0983 12.6664 17.0165 13.1671 17.6238C12.6951 17.6427 12.2148 17.6247 11.7419 17.6245L7.44672 17.6254C7.19074 17.6272 6.9111 17.6557 6.65869 17.6238C7.1709 17.1342 8.2804 16.0732 8.68147 15.5437Z"/>
    <path d="M23.3076 12.2271L23.3368 12.2543C23.3009 13.1225 23.3056 13.988 23.3076 14.857L18.0331 14.8575C17.4929 14.8571 16.9138 14.9119 16.4876 14.5153C15.7785 13.8554 16.0103 12.4661 17.0053 12.2582C17.4047 12.1747 18.3491 12.2274 18.8015 12.2275C20.3015 12.2279 21.8083 12.2577 23.3076 12.2271Z"/>
    <path d="M31.0859 24.1703C31.0586 24.0217 31.0398 23.9021 31.0859 23.7547C31.0925 23.8939 31.0909 24.031 31.0859 24.1703C32.0804 24.1689 32.8977 24.085 33.8218 24.5344C35.819 25.5058 35.8308 27.2914 35.8313 29.1855L35.8311 30.8131C35.8257 31.9638 35.6342 33.0609 34.7796 33.9002C33.4778 35.1788 31.9198 34.97 30.2321 34.9685C28.4529 34.967 26.2916 35.2869 24.949 33.9194C23.8915 32.8423 24.0295 31.6722 24.0294 30.2822C24.0294 29.4682 24.0213 28.6529 24.0333 27.8391C24.0619 25.8974 25.3711 24.2432 27.3877 24.174C27.7725 24.1609 28.1646 24.1964 28.5477 24.1703C28.6551 24.2162 30.6391 24.1407 31.0859 24.1703Z"/>
    <path fill-rule="evenodd" clip-rule="evenodd" d="M7.49544 10.8724L8.68155 10.872H11.2075L12.5518 10.8734C14.6321 10.8734 15.9147 9.95017 15.9467 7.76106C15.9497 7.5578 15.9562 7.28966 15.9637 6.98082C15.9978 5.57837 16.0524 3.33664 15.8868 2.51944C15.5863 1.03702 14.3916 0.0317603 12.8636 0.0251367L8.76845 0.0252031C8.54717 0.0249949 8.32719 0.018667 8.10937 0.0124009C6.94685 -0.0210408 5.84555 -0.0527212 4.9337 0.857024C4.15971 1.62923 4.00915 2.47205 4.00707 3.52687L4.00705 6.13221C4.00694 6.30427 4.00409 6.4768 4.00126 6.64906C3.98127 7.8626 3.9615 9.06286 4.89592 9.99134C5.68523 10.7756 6.43823 10.8713 7.49544 10.8724ZM13.1427 4.16469C13.1031 3.45245 12.4835 3.05972 11.8131 3.11991C11.3963 3.21946 10.6332 3.97239 10.041 4.5567C9.82138 4.77342 9.62525 4.96694 9.47902 5.09533C9.36823 5.01553 9.27056 4.92079 9.17287 4.82602C9.12351 4.77814 9.07415 4.73026 9.02309 4.6843C8.4702 4.18676 7.51227 4.18062 7.05044 4.80382C6.44982 5.61433 7.17198 6.2331 7.77907 6.75329C7.90927 6.86484 8.03417 6.97187 8.1396 7.07527C9.23134 8.05105 9.82107 7.86795 10.8009 6.92728L11.7354 6.03077C11.8419 5.92943 11.9662 5.82487 12.096 5.71567C12.5961 5.29496 13.1783 4.80521 13.1427 4.16469Z"/>
    <path d="M23.3076 12.2271C23.3928 12.1458 23.0646 8.85345 26.2163 8.13946C26.752 8.01811 27.3391 8.05372 27.8863 8.0528L31.3101 8.05247C34.4943 8.0235 35.8326 8.90184 35.8317 12.2054L35.8307 13.7754C35.8291 15.786 36.2115 17.8664 34.5771 19.3646C33.455 20.3933 32.5021 20.3362 31.0859 20.3344L29.3586 20.3354C29.0926 20.3363 28.8109 20.3685 28.5477 20.3344C27.1114 20.2215 25.9838 20.6225 24.6559 19.5816C23.4837 18.6629 23.2882 17.4228 23.3072 16.0466C23.3124 15.6684 23.3595 15.2696 23.3124 14.894L23.3076 14.857C23.3057 13.988 23.3009 13.1225 23.3368 12.2543L23.3076 12.2271Z"/>
    <path d="M6.65869 17.6238C6.91111 17.6557 7.19074 17.6272 7.44672 17.6254L11.742 17.6245C12.2148 17.6247 12.6951 17.6427 13.1671 17.6238C13.559 17.7403 14.9884 17.6847 15.4793 17.6861C16.8768 17.6903 17.6933 17.75 18.733 18.8044C19.7992 19.8856 19.7959 20.9747 19.7965 22.3768V24.3924C19.796 26.6139 19.8225 28.8391 19.7954 31.0603C19.7813 32.2118 19.423 33.116 18.5918 33.9201C17.4403 35.0338 16.449 34.9686 14.9725 34.9691H7.09313C4.31879 34.9691 0.83385 35.3897 0.094893 31.7809C-0.0218421 31.2109 0.0140484 30.608 0.0141148 30.0284L0.0139904 23.7288C0.0138825 21.7417 -0.236271 20.132 1.38352 18.605C2.66157 17.4002 4.95174 17.5734 6.65869 17.6238Z"/>
  </g>
</svg>
