<svg fill="none" width="35" height="35" viewBox="0 0 35 35" xmlns="http://www.w3.org/2000/svg">
  <g opacity="0.7">
    <path d="M33.4352 19.2631C34.0275 19.213 34.2655 17.4632 34.5532 17.2824C34.1946 18.5949 33.406 19.8082 32.2075 20.4869C31.3497 20.9726 29.9231 21.2666 28.9879 20.8225L29.0265 20.8001C29.2167 20.8197 29.4765 20.9149 29.7547 20.9464C30.8204 21.0672 32.4036 20.6361 33.0899 19.7263C33.226 19.5459 33.2628 19.4322 33.4352 19.2631Z"/>
    <path d="M28.6992 31.8284C28.718 31.8009 28.7306 31.7857 28.759 31.767C29.1725 31.4955 30.0237 30.5962 30.3693 30.1474C30.5986 29.8497 31.3786 28.2419 31.4647 28.2232C32.0466 30.0276 30.6132 31.9179 28.6992 31.8284Z"/>
    <path d="M28.6992 31.8283C26.8031 31.7496 26.641 30.3371 26.0592 28.9777C25.9002 28.6062 25.6435 28.28 25.5022 27.8997C25.1855 27.0469 25.6449 26.1123 26.4935 25.8032C27.4042 25.4715 28.0865 25.946 28.9042 26.2708C30.0671 26.733 30.9697 26.8603 31.4647 28.2231C31.3787 28.2417 30.5987 29.8496 30.3694 30.1473C30.0237 30.596 29.1726 31.4953 28.7591 31.7669C28.7306 31.7855 28.7181 31.8008 28.6992 31.8283Z"/>
    <path d="M28.2438 6.24474C29.1917 5.09747 29.8867 3.50109 31.5497 3.34499C34.4608 3.07173 35.7208 6.83773 33.2101 8.29729C32.7898 8.54165 32.3066 8.60175 31.8732 8.81408C31.0134 9.2354 30.4469 9.96152 29.3713 9.58676C27.9944 9.37803 27.2939 7.44841 28.2438 6.24474Z"/>
    <path d="M29.3713 9.5868C27.9944 9.37808 27.2939 7.44845 28.2438 6.24478C28.3812 6.33014 29.1411 7.7706 29.256 7.9736C29.5496 8.49286 29.9561 8.94964 29.9177 9.57369L29.9141 9.54861L29.9621 9.60027C29.7626 9.65852 29.5616 9.53216 29.3713 9.5868Z"/>
    <path d="M28.988 20.8226C27.8503 20.5335 27.1934 20.2346 26.0476 20.9268C24.4874 21.8695 25.0417 23.0917 23.7817 24.0877C22.8351 24.836 21.8053 24.6713 20.8949 25.6571C19.3833 27.2938 20.4255 28.4374 20.4785 30.0073C20.5699 32.7097 18.5369 34.9258 15.8163 34.9984C12.8395 35.0781 9.96144 32.0942 11.0378 29.1313C11.3415 28.2953 11.8189 27.7536 11.7908 26.7974C11.7254 24.5656 9.47721 23.5019 7.51142 24.3154C6.52122 24.7252 5.91714 25.2987 4.75298 25.327C-0.25562 25.4486 -1.80514 18.5924 2.54312 16.7836C3.85755 16.2369 5.21151 16.089 5.31781 14.2357C5.43731 12.1502 3.34447 11.1913 2.27722 9.58474C0.51836 6.93699 1.21566 3.20221 3.69106 1.26651C5.7159 -0.316796 8.94652 -0.543047 10.8862 1.31954C13.6176 3.94226 10.2299 5.95225 12.2874 7.87281C13.0754 8.60827 14.249 8.64769 15.1357 8.08224C16.371 7.29442 16.1335 6.3418 16.5453 5.16734C17.1354 3.48426 18.689 2.19906 20.5002 2.13038C23.1789 2.02881 25.2379 4.52745 24.4114 7.15064C24.3247 7.4258 24.187 7.67641 24.0615 7.93502C22.8302 10.4719 25.3161 13.3605 27.9976 12.4176C28.7083 12.1677 28.9494 11.8922 29.7788 11.8597C32.1509 11.7669 34.3482 13.618 34.5429 16.0121C34.5771 16.4334 34.5388 16.8601 34.5533 17.2825C34.2655 17.4633 34.0275 19.2131 33.4352 19.2631C33.2628 19.4323 33.2261 19.5459 33.0899 19.7263C32.4037 20.6362 30.8205 21.0673 29.7548 20.9465C29.4765 20.915 29.2168 20.8198 29.0265 20.8001L28.988 20.8226Z"/>
  </g>
</svg>
