<svg width="24" height="24" viewBox="0 0 24 24" fill="none" xmlns="http://www.w3.org/2000/svg">
<circle cx="12" cy="12" r="11" stroke="white" stroke-width="2"/>
<path d="M13.168 8.896C12.8693 9.19467 12.512 9.344 12.096 9.344C11.68 9.344 11.3173 9.19467 11.008 8.896C10.7093 8.58667 10.56 8.224 10.56 7.808C10.56 7.392 10.7093 7.03467 11.008 6.736C11.3173 6.43733 11.68 6.288 12.096 6.288C12.512 6.288 12.8693 6.43733 13.168 6.736C13.4773 7.03467 13.632 7.392 13.632 7.808C13.632 8.224 13.4773 8.58667 13.168 8.896ZM10.768 18V10H13.424V18H10.768Z" fill="white"/>
</svg>
