<svg width="39" height="35" viewBox="0 0 39 35" fill="none" xmlns="http://www.w3.org/2000/svg">
  <g opacity="0.7">
    <path d="M28.9002 16.7653C25.4687 16.411 23.1018 13.394 23.4774 9.98689C23.8265 6.82169 26.9734 4.67279 30.0737 5.05133C33.283 5.44323 35.5655 8.40539 35.1418 11.611C34.8006 14.1921 32.5026 16.5882 29.8446 16.7653C29.5808 16.7212 29.1754 16.7536 28.9002 16.7653Z"/>
    <path d="M28.9002 16.7654C29.1755 16.7537 29.5808 16.7212 29.8446 16.7654C30.0478 16.8826 31.2889 16.92 31.8298 17.0827C36.63 18.5254 39.0988 22.4965 38.9497 27.3235L38.9108 27.3192C38.6674 27.5288 38.8858 27.4282 38.8194 27.6324L38.7345 27.6235C38.4145 28.0957 38.6647 27.8162 38.2348 28.2203C38.0405 28.403 37.7282 28.8045 37.6722 29.0786L37.6645 29.1177C37.381 29.4412 36.9825 29.5222 36.6492 29.7489C36.3967 29.9206 35.9158 30.5022 35.7433 30.3908C35.4563 30.4683 35.1421 30.4359 34.8668 30.555L27.3257 30.5545C27.0234 30.5544 26.7127 30.5375 26.4116 30.555C26.3615 29.8259 26.4394 29.0939 26.3754 28.3608C26.1385 25.6449 24.9349 22.9674 23.181 20.8867C23.0182 20.6936 22.833 20.5055 22.6863 20.3006L22.6583 20.2608C22.5353 20.1418 22.4214 20.0116 22.305 19.8859C22.4971 19.3765 24.1491 18.2395 24.6519 17.9864C25.6547 17.0408 28.6105 16.9567 28.9002 16.7654Z"/>
    <path d="M12.4513 0C12.885 0.0311494 13.3254 -0.0139514 13.7622 0.0215604C17.5432 0.329084 20.5847 3.43459 20.977 7.18539C21.4479 11.6881 18.1951 15.5121 13.7387 15.9636C11.5096 15.9292 10.6359 16.0218 8.667 14.6351C5.10708 12.128 3.9981 6.96275 6.58977 3.35971C8.18081 1.14771 9.92323 0.408983 12.4513 0Z"/>
    <path d="M26.4116 30.555C26.2868 30.8388 26.2202 31.1375 26.1306 31.4331C25.2625 34.2996 23.2071 34.9807 20.5789 34.9817L7.12452 34.9816C6.24422 34.9825 5.0282 35.0558 4.18397 34.9036C2.00891 34.5114 0.198637 32.4913 0.0363768 30.2928C-0.456245 23.6175 4.10356 17.5723 10.7341 16.3239C15.2798 15.468 18.957 17.008 22.305 19.8859C22.4214 20.0115 22.5353 20.1418 22.6583 20.2608L22.6864 20.3005C22.833 20.5055 23.0183 20.6935 23.181 20.8866C24.9349 22.9674 26.1385 25.6449 26.3755 28.3608C26.4394 29.0938 26.3615 29.8259 26.4116 30.555Z"/>
  </g>
</svg>
