<svg width="34" height="30" viewBox="0 0 34 30" fill="none" xmlns="http://www.w3.org/2000/svg">
<path fill-rule="evenodd" clip-rule="evenodd" d="M0.896037 9.68712C0.773507 9.75554 0.648378 9.82542 0.516609 9.90011L0.516963 26.7976C0.516936 27.0463 0.50401 27.2992 0.491287 27.5481C0.426636 28.8128 0.36724 29.9748 2.03238 29.9725L7.75038 29.9702C8.02026 29.9586 8.29066 29.9625 8.56095 29.9665C8.68801 29.9683 8.81504 29.9702 8.94199 29.9704L11.2358 29.9611C11.293 29.9603 11.3506 29.9631 11.4081 29.9659C11.4726 29.969 11.5369 29.9722 11.6004 29.9702H21.2907C22.1247 30.0122 26.4393 29.9661 26.7001 29.8867C26.4378 29.966 22.1246 30.0121 21.2909 29.9702H11.6005C11.5371 29.9721 11.4727 29.969 11.4083 29.9659C11.3507 29.9631 11.2931 29.9603 11.2359 29.9611L8.94215 29.9703C8.81519 29.9701 8.68814 29.9683 8.56108 29.9664C8.29079 29.9625 8.02041 29.9585 7.75053 29.9702L7.75099 14.7226C7.75726 14.0952 7.77525 13.4548 8.59719 13.3696C9.11413 13.3159 9.65319 13.3259 10.1839 13.3357C10.3844 13.3394 10.5837 13.3431 10.7801 13.3433H21.8219C22.2152 13.3433 22.6091 13.3407 23.0032 13.3381C23.8036 13.3327 24.6047 13.3273 25.4031 13.3443C26.5285 13.3683 26.7094 13.9341 26.7106 14.9531L26.7102 26.5285C26.7101 26.901 26.714 27.2748 26.7179 27.6489C26.7257 28.3942 26.7335 29.1409 26.7103 29.8824C26.7102 29.8824 26.7102 29.8825 26.7101 29.8825C26.7183 30.0406 27.3183 30.0007 27.6406 29.9793C27.718 29.9741 27.7794 29.97 27.8127 29.97L31.8744 29.9719C31.9599 29.9722 32.0492 29.975 32.1407 29.9778C32.6331 29.993 33.1877 30.0102 33.5456 29.6487C33.9994 29.1906 33.9503 28.0831 33.9151 27.2878C33.9068 27.1025 33.8994 26.9341 33.8992 26.7949L33.8993 9.90011C33.5219 9.88942 31.6563 8.69645 30.4502 7.92522C30.0984 7.70029 29.8028 7.51123 29.6165 7.39785L19.3191 1.19244C18.2795 0.5749 17.7851 0.265173 17.2894 0.262921C16.7743 0.260582 16.2577 0.590143 15.1266 1.25123L1.79381 9.17022C1.47187 9.36556 1.19151 9.52212 0.896037 9.68712Z"/>
</svg>
